<svg width="16" height="16" viewBox="0 0 16 16" fill="none" xmlns="http://www.w3.org/2000/svg">
<path d="M4 5.33337C4 4.27251 4.42143 3.25509 5.17157 2.50495C5.92172 1.7548 6.93913 1.33337 8 1.33337C9.06087 1.33337 10.0783 1.7548 10.8284 2.50495C11.5786 3.25509 12 4.27251 12 5.33337C12 10 14 11.3334 14 11.3334H2C2 11.3334 4 10 4 5.33337Z" fill="#000" stroke="#000" stroke-linecap="round" stroke-linejoin="round"/>
<path d="M12 7.33337C13.1046 7.33337 14 6.43794 14 5.33337C14 4.2288 13.1046 3.33337 12 3.33337C10.8954 3.33337 10 4.2288 10 5.33337C10 6.43794 10.8954 7.33337 12 7.33337Z" fill="#000"/>
<path d="M6.86621 14C6.9778 14.203 7.14184 14.3722 7.3412 14.4901C7.54057 14.608 7.76793 14.6702 7.99954 14.6702C8.23116 14.6702 8.45852 14.608 8.65788 14.4901C8.85725 14.3722 9.02129 14.203 9.13288 14" stroke="#000" stroke-linecap="round" stroke-linejoin="round"/>
</svg>
